<svg xmlns="http://www.w3.org/2000/svg" viewBox="0 0 24 24"><path d="M12.001 0C8.818 0 5.767 1.27 3.515 3.515 1.27 5.766 0 8.817 0 12s1.27 6.235 3.514 8.478A11.946 11.946 0 0 0 12.001 24c3.316 0 6.317-1.347 8.487-3.523C22.739 18.234 24 15.182 24 12s-1.261-6.234-3.513-8.485h.001A11.984 11.984 0 0 0 12.001 0z"/><path fill="#F8F8F8" d="M15.836 22.154c-6.618 2.393-11.401-2.014-12.42-3.552.006-.014.006-.027.006-.039.92-3.889 2.058-8.535 3.885-9.91.955-1.655 1.231-4.113 2.943-5.401.432 1.288 1.107 3.958 1.57 5.246 2.025 2.026 5.088 4.546 7.147 5.59.212.12.489.981.489.981l-.825 1.038-8.837-.887c-.2-.02-.394-.028-.594-.028-.569 0-1.15.073-1.833.18.432-1.071 1.35-1.936 1.35-1.936s-.855-.519-1.505-.605c.187-.432.681-.989.799-1.138-.243.087-2.025.888-2.207 1.563.857.214 1.469.487 1.469.487s-.949.957-1.131 2.612c0 0 2.821-.431 4.94-.153.063.03.094.03.125.03l1.102.031 3.537 5.886a.012.012 0 0 1-.01.005z"/><path fill="#F8F8F8" d="M12.001 6.691c.832-.801.951-.92 1.751-1.689.063 1.532.031 2.333-.063 4.203-.463-.458-1.381-1.044-1.381-1.044s-.181-1.07-.307-1.47z"/><path fill="#D71000" d="M22.802 11.999c0 2.98-1.205 5.678-3.156 7.634h-.001a10.839 10.839 0 0 1-1.863 1.495l-.044.026h-.006l-3.703-4.614 3.071.336s1.471.151 1.808 0c.308-.117 1.963-2.449 1.963-2.449s-4.76-3.009-6.385-4.666c.188-2.794-.213-6.509-.213-6.479-1.193 1.195-1.35 1.383-2.545 2.489-.52-1.688-.769-2.269-1.289-3.958C8.87 3.102 7.675 5.277 6.817 7.829c-.178.197-.358.41-.531.63l-.02.026c-.112.157-.23.312-.344.475-.231.326-.45.675-.663 1.032-.15.257-.299.52-.438.788-.063.112-.125.231-.188.35-.913 1.788-1.676 3.789-2.34 5.604A10.673 10.673 0 0 1 1.202 12c0-2.863 1.138-5.614 3.165-7.64a10.789 10.789 0 0 1 7.634-3.159h.011c2.981 0 5.679 1.207 7.634 3.158a10.797 10.797 0 0 1 3.156 7.64z"/><path d="M13.172 12.769c.549-.157.612-.188 1.164-.337-.709-.526-1.478-1.077-2.515-.926-.094.275-.188.494-.245.8.489-.064 1.007.126 1.596.463z"/></svg>